<svg width="66" height="71" viewBox="0 0 66 71" fill="none" xmlns="http://www.w3.org/2000/svg">
<path d="M49.3404 60.858C62.0295 52.8457 61.1058 34.3418 46.9849 28.5486C46.2881 28.2295 45.4578 28.0178 44.748 27.8191C41.5241 37.3428 33.3868 46.0912 24.7421 46.0093C16.9538 45.8982 15.5118 37.82 20.4091 33.1088C26.2539 27.5251 34.3127 24.009 42.4232 24.5206C43.9441 18.3473 42.9221 12.0209 37.1429 7.98311C27.395 1.20034 12.5992 7.27846 7.40858 16.955C6.92989 18.0002 5.29541 17.3359 5.7741 16.2907C11.2614 2.74605 31.5596 -2.37126 42.0953 8.3969C46.1489 12.6137 46.9429 18.7936 45.5425 24.9799C53.6433 26.7093 59.4581 33.7979 61.1671 41.6611C63.1072 50.7682 58.0178 58.3838 50.5904 62.8213C49.415 63.5475 48.2855 61.5969 49.3404 60.858ZM27.9241 31.2403C25.0652 32.8811 21.7798 35.0853 20.3437 38.2207C18.9207 41.2355 23.1404 42.789 25.0549 43.1178C27.4513 43.4989 29.8022 42.0468 31.6582 40.6631C35.7444 37.8145 39.5837 32.7452 41.6286 27.3598C36.8911 27.2131 32.0658 29.0069 27.9241 31.2403Z" fill="#17BEBB"/>
<path d="M44.1533 67.1236C44.5181 63.7504 45.1369 60.2828 46.3321 57.1213C46.8368 55.8354 48.5787 56.633 48.1944 57.9323C47.4259 60.5306 47.2467 63.3145 47.0804 65.9779C48.6594 66.0268 50.359 66.0887 51.9512 66.0172C53.182 65.9065 55.0803 65.2587 56.2068 66.1118C56.7703 66.5384 56.7051 67.1408 56.3988 67.7171C55.6401 69.0976 53.1102 68.8239 51.759 68.9215C49.5512 69.0484 47.4904 68.9471 45.3217 68.7126C44.5992 68.6344 44.0751 67.8465 44.1533 67.1236Z" fill="#17BEBB"/>
</svg>
