<svg width="13" height="13" viewBox="0 0 13 13" fill="none" xmlns="http://www.w3.org/2000/svg">
<path fill-rule="evenodd" clip-rule="evenodd" d="M6.5 13C10.0899 13 13 10.0899 13 6.5C13 2.91005 10.0899 0 6.5 0C2.91005 0 0 2.91005 0 6.5C0 10.0899 2.91005 13 6.5 13ZM5.85 3.9C5.85 3.72761 5.91848 3.56228 6.04038 3.44038C6.16228 3.31848 6.32761 3.25 6.5 3.25C6.67239 3.25 6.83772 3.31848 6.95962 3.44038C7.08152 3.56228 7.15 3.72761 7.15 3.9V5.85H9.1C9.27239 5.85 9.43772 5.91848 9.55962 6.04038C9.68152 6.16228 9.75 6.32761 9.75 6.5C9.75 6.67239 9.68152 6.83772 9.55962 6.95962C9.43772 7.08152 9.27239 7.15 9.1 7.15H7.15V9.1C7.15 9.27239 7.08152 9.43772 6.95962 9.55962C6.83772 9.68152 6.67239 9.75 6.5 9.75C6.32761 9.75 6.16228 9.68152 6.04038 9.55962C5.91848 9.43772 5.85 9.27239 5.85 9.1V7.15H3.9C3.72761 7.15 3.56228 7.08152 3.44038 6.95962C3.31848 6.83772 3.25 6.67239 3.25 6.5C3.25 6.32761 3.31848 6.16228 3.44038 6.04038C3.56228 5.91848 3.72761 5.85 3.9 5.85H5.85V3.9Z" fill="#0E2D52"/>
</svg>
