<svg width="13" height="15" viewBox="0 0 13 15" fill="none" xmlns="http://www.w3.org/2000/svg">
<path fill-rule="evenodd" clip-rule="evenodd" d="M11.9164 6.19043H0.776367C0.517617 6.19043 0.307617 5.98043 0.307617 5.72168C0.307617 5.46293 0.517617 5.25293 0.776367 5.25293H11.9164C12.1751 5.25293 12.3851 5.46293 12.3851 5.72168C12.3851 5.98043 12.1751 6.19043 11.9164 6.19043Z" fill="#0E2D52"/>
<path fill-rule="evenodd" clip-rule="evenodd" d="M9.12555 8.63086C8.8668 8.63086 8.6543 8.42086 8.6543 8.16211C8.6543 7.90336 8.86117 7.69336 9.11992 7.69336H9.12555C9.3843 7.69336 9.5943 7.90336 9.5943 8.16211C9.5943 8.42086 9.3843 8.63086 9.12555 8.63086Z" fill="#0E2D52"/>
<path fill-rule="evenodd" clip-rule="evenodd" d="M6.35211 8.63086C6.09336 8.63086 5.88086 8.42086 5.88086 8.16211C5.88086 7.90336 6.08773 7.69336 6.34648 7.69336H6.35211C6.61086 7.69336 6.82086 7.90336 6.82086 8.16211C6.82086 8.42086 6.61086 8.63086 6.35211 8.63086Z" fill="#0E2D52"/>
<path fill-rule="evenodd" clip-rule="evenodd" d="M3.57295 8.63086C3.3142 8.63086 3.10107 8.42086 3.10107 8.16211C3.10107 7.90336 3.30857 7.69336 3.56732 7.69336H3.57295C3.8317 7.69336 4.0417 7.90336 4.0417 8.16211C4.0417 8.42086 3.8317 8.63086 3.57295 8.63086Z" fill="#0E2D52"/>
<path fill-rule="evenodd" clip-rule="evenodd" d="M9.12555 11.0601C8.8668 11.0601 8.6543 10.8501 8.6543 10.5913C8.6543 10.3326 8.86117 10.1226 9.11992 10.1226H9.12555C9.3843 10.1226 9.5943 10.3326 9.5943 10.5913C9.5943 10.8501 9.3843 11.0601 9.12555 11.0601Z" fill="#0E2D52"/>
<path fill-rule="evenodd" clip-rule="evenodd" d="M6.35211 11.0601C6.09336 11.0601 5.88086 10.8501 5.88086 10.5913C5.88086 10.3326 6.08773 10.1226 6.34648 10.1226H6.35211C6.61086 10.1226 6.82086 10.3326 6.82086 10.5913C6.82086 10.8501 6.61086 11.0601 6.35211 11.0601Z" fill="#0E2D52"/>
<path fill-rule="evenodd" clip-rule="evenodd" d="M3.57295 11.0601C3.3142 11.0601 3.10107 10.8501 3.10107 10.5913C3.10107 10.3326 3.30857 10.1226 3.56732 10.1226H3.57295C3.8317 10.1226 4.0417 10.3326 4.0417 10.5913C4.0417 10.8501 3.8317 11.0601 3.57295 11.0601Z" fill="#0E2D52"/>
<path fill-rule="evenodd" clip-rule="evenodd" d="M8.87109 3.61937C8.61234 3.61937 8.40234 3.40937 8.40234 3.15062V1.09375C8.40234 0.835 8.61234 0.625 8.87109 0.625C9.12984 0.625 9.33984 0.835 9.33984 1.09375V3.15062C9.33984 3.40937 9.12984 3.61937 8.87109 3.61937Z" fill="#0E2D52"/>
<path fill-rule="evenodd" clip-rule="evenodd" d="M3.82227 3.61937C3.56352 3.61937 3.35352 3.40937 3.35352 3.15062V1.09375C3.35352 0.835 3.56352 0.625 3.82227 0.625C4.08102 0.625 4.29102 0.835 4.29102 1.09375V3.15062C4.29102 3.40937 4.08102 3.61937 3.82227 3.61937Z" fill="#0E2D52"/>
<mask id="mask0_1165_3526" style="mask-type:luminance" maskUnits="userSpaceOnUse" x="0" y="1" width="13" height="14">
<path fill-rule="evenodd" clip-rule="evenodd" d="M0.25 1.61182H12.4375V14.0624H0.25V1.61182Z" fill="white"/>
</mask>
<g mask="url(#mask0_1165_3526)">
<path fill-rule="evenodd" clip-rule="evenodd" d="M3.70062 2.54932C2.08 2.54932 1.1875 3.41369 1.1875 4.98307V10.6387C1.1875 12.2424 2.08 13.1249 3.70062 13.1249H8.98687C10.6075 13.1249 11.5 12.2587 11.5 10.6862V4.98307C11.5025 4.21119 11.295 3.61119 10.8831 3.19869C10.4594 2.77369 9.80625 2.54932 8.9925 2.54932H3.70062ZM8.98688 14.0624H3.70062C1.5725 14.0624 0.25 12.7506 0.25 10.6387V4.98307C0.25 2.90307 1.5725 1.61182 3.70062 1.61182H8.9925C10.0606 1.61182 10.9438 1.93182 11.5469 2.53619C12.1325 3.12432 12.4406 3.96994 12.4375 4.98432V10.6862C12.4375 12.7687 11.115 14.0624 8.98688 14.0624Z" fill="#0E2D52"/>
</g>
</svg>
