<svg width="21" height="21" viewBox="0 0 21 21" fill="none" xmlns="http://www.w3.org/2000/svg">
<path d="M14.1075 16.1143C15.2154 16.1143 16.1118 17.0207 16.1118 18.1286C16.1118 19.2364 15.2154 20.1428 14.1075 20.1428C12.9997 20.1428 12.0933 19.2364 12.0933 18.1286C12.0933 17.0207 12.9997 16.1143 14.1075 16.1143ZM20.1504 1.00714C20.1504 1.56107 19.6972 2.01428 19.1432 2.01428H18.1361L14.5104 9.65849L15.87 12.1159C16.6053 13.4655 15.6384 15.1071 14.1075 15.1071H3.02898C2.47505 15.1071 2.02184 14.6539 2.02184 14.1C2.02184 13.5461 2.47505 13.0928 3.02898 13.0928H14.1075L12.9997 11.0786H5.49648C4.74112 11.0786 4.07641 10.6656 3.73398 10.0412L0.128412 3.50485C-0.24423 2.84014 0.239197 2.01428 1.00462 2.01428H15.9103L16.5851 0.574071C16.7463 0.221571 17.1088 0 17.4915 0H19.1432C19.6972 0 20.1504 0.453214 20.1504 1.00714ZM4.03612 16.1143C5.14398 16.1143 6.04033 17.0207 6.04033 18.1286C6.04033 19.2364 5.14398 20.1428 4.03612 20.1428C2.92826 20.1428 2.02184 19.2364 2.02184 18.1286C2.02184 17.0207 2.92826 16.1143 4.03612 16.1143Z" fill="#9090A7"/>
</svg>
