<svg width="15" height="15" viewBox="0 0 15 15" fill="none" xmlns="http://www.w3.org/2000/svg">
<path d="M11.9154 0.577148H2.8487C1.56425 0.577148 0.582031 1.55937 0.582031 2.84381V11.9105C0.582031 13.1949 1.56425 14.1771 2.8487 14.1771H11.9154C13.1998 14.1771 14.182 13.1949 14.182 11.9105V2.84381C14.182 1.55937 13.1998 0.577148 11.9154 0.577148ZM7.38203 5.11048C8.66647 5.11048 9.6487 6.0927 9.6487 7.37715C9.6487 8.66159 8.66647 9.64381 7.38203 9.64381C6.09759 9.64381 5.11536 8.66159 5.11536 7.37715C5.11536 6.0927 6.09759 5.11048 7.38203 5.11048ZM10.2531 3.59937C10.2531 3.07048 10.7065 2.6927 11.1598 2.6927C11.6131 2.6927 12.0665 3.14604 12.0665 3.59937C12.0665 4.0527 11.6887 4.50604 11.1598 4.50604C10.6309 4.50604 10.2531 4.12826 10.2531 3.59937ZM11.9154 12.666H2.8487C2.39536 12.666 2.09314 12.3638 2.09314 11.9105V7.37715H3.60425C3.60425 9.4927 5.26648 11.1549 7.38203 11.1549C9.49759 11.1549 11.1598 9.4927 11.1598 7.37715H12.6709V11.9105C12.6709 12.3638 12.3687 12.666 11.9154 12.666Z" fill="#0E2D52"/>
</svg>
