<svg width="11" height="13" viewBox="0 0 11 13" fill="none" xmlns="http://www.w3.org/2000/svg">
<path fill-rule="evenodd" clip-rule="evenodd" d="M5.65674 4.8125C5.05361 4.8125 4.56299 5.30313 4.56299 5.90688C4.56299 6.51 5.05361 7 5.65674 7C6.25986 7 6.75049 6.51 6.75049 5.90688C6.75049 5.30313 6.25986 4.8125 5.65674 4.8125ZM5.65674 7.9375C4.53674 7.9375 3.62549 7.02688 3.62549 5.90687C3.62549 4.78625 4.53674 3.875 5.65674 3.875C6.77674 3.875 7.68799 4.78625 7.68799 5.90687C7.68799 7.02688 6.77674 7.9375 5.65674 7.9375Z" fill="#9090A7"/>
<mask id="mask0_1105_3645" style="mask-type:luminance" maskUnits="userSpaceOnUse" x="0" y="0" width="11" height="13">
<path fill-rule="evenodd" clip-rule="evenodd" d="M0.5 0.75H10.8122V12.9375H0.5V0.75Z" fill="white"/>
</mask>
<g mask="url(#mask0_1105_3645)">
<path fill-rule="evenodd" clip-rule="evenodd" d="M5.65576 1.6875C3.32951 1.6875 1.43701 3.59812 1.43701 5.94562C1.43701 8.9325 4.95201 11.8425 5.65576 11.9975C6.35951 11.8419 9.87451 8.93187 9.87451 5.94562C9.87451 3.59812 7.98201 1.6875 5.65576 1.6875ZM5.65576 12.9375C4.53451 12.9375 0.499512 9.4675 0.499512 5.94562C0.499512 3.08062 2.81264 0.75 5.65576 0.75C8.49889 0.75 10.812 3.08062 10.812 5.94562C10.812 9.4675 6.77701 12.9375 5.65576 12.9375Z" fill="#9090A7"/>
</g>
</svg>
