<svg width="21" height="20" viewBox="0 0 21 20" fill="none" xmlns="http://www.w3.org/2000/svg">
<path d="M18.4166 7.07333V14.0625C18.4166 15.2708 17.4374 16.25 16.2291 16.25H4.77075C4.19059 16.25 3.63419 16.0195 3.22396 15.6093C2.81372 15.1991 2.58325 14.6427 2.58325 14.0625V7.07333L10.2491 11.29C10.4053 11.3758 10.5949 11.3758 10.7508 11.29L18.4166 7.07292V7.07333ZM16.2291 3.75C16.8001 3.75005 17.3485 3.9734 17.7571 4.37232C18.1657 4.77125 18.402 5.31413 18.4158 5.885L10.4999 10.2392L2.58409 5.88458L2.58492 5.84708C2.60825 5.28302 2.84875 4.74983 3.25613 4.35899C3.66351 3.96815 4.20621 3.74995 4.77075 3.75H16.2291Z" fill="black"/>
</svg>
