<svg width="14" height="14" viewBox="0 0 14 14" fill="none" xmlns="http://www.w3.org/2000/svg">
<path fill-rule="evenodd" clip-rule="evenodd" d="M1.72492 2.16273C1.72617 2.16273 1.69492 2.19523 1.65554 2.23398C1.50429 2.38086 1.19117 2.68648 1.18804 3.32586C1.18304 4.22023 1.77117 5.88086 4.60304 8.71211C7.42179 11.5296 9.07992 12.1246 9.97617 12.1246H9.98929C10.6287 12.1215 10.9337 11.8077 11.0812 11.6571C11.1262 11.6109 11.1624 11.5771 11.188 11.5559C11.8105 10.9296 12.1293 10.4634 12.1262 10.1646C12.1218 9.85961 11.7424 9.49898 11.218 9.00023C11.0512 8.84148 10.8699 8.66898 10.6787 8.47773C10.183 7.98336 9.93742 8.06773 9.39742 8.25773C8.65054 8.51961 7.62554 8.87586 6.03304 7.28273C4.43804 5.68898 4.79492 4.66523 5.05617 3.91836C5.24492 3.37836 5.33117 3.13211 4.83492 2.63586C4.64054 2.44211 4.46617 2.25836 4.30554 2.08961C3.80992 1.56836 3.45242 1.19148 3.14929 1.18711H3.14429C2.84492 1.18711 2.37992 1.50711 1.72179 2.16523C1.72367 2.16336 1.72429 2.16273 1.72492 2.16273ZM9.97679 13.0621C8.41929 13.0621 6.38867 11.8221 3.94054 9.37523C1.48304 6.91836 0.241166 4.88148 0.250541 3.32086C0.256166 2.28961 0.796791 1.76148 0.999916 1.56336C1.01054 1.55023 1.04679 1.51461 1.05929 1.50211C1.95554 0.605233 2.55992 0.242733 3.16117 0.249608C3.85929 0.258983 4.35617 0.781483 4.98492 1.44336C5.14054 1.60711 5.30929 1.78523 5.49742 1.97273C6.40992 2.88523 6.14992 3.62961 5.94117 4.22711C5.71367 4.87898 5.51679 5.44148 6.69554 6.62023C7.87554 7.79898 8.43804 7.60211 9.08742 7.37273C9.68554 7.16398 10.428 6.90273 11.3418 7.81523C11.5268 8.00023 11.7024 8.16711 11.8643 8.32148C12.5293 8.95336 13.0543 9.45273 13.063 10.1527C13.0705 10.7496 12.708 11.3577 11.813 12.2534L11.4168 11.9846L11.7518 12.3121C11.5537 12.5152 11.0262 13.0565 9.99429 13.0621H9.97679Z" fill="#0E2D52"/>
</svg>
