<svg width="16" height="17" viewBox="0 0 16 17" fill="none" xmlns="http://www.w3.org/2000/svg">
<mask id="mask0_1105_1742" style="mask-type:luminance" maskUnits="userSpaceOnUse" x="0" y="0" width="16" height="16">
<path fill-rule="evenodd" clip-rule="evenodd" d="M0.5 0.5H15.1076V15.1077H0.5V0.5Z" fill="white"/>
</mask>
<g mask="url(#mask0_1105_1742)">
<path fill-rule="evenodd" clip-rule="evenodd" d="M7.80425 1.625C4.397 1.625 1.625 4.39625 1.625 7.8035C1.625 11.2108 4.397 13.9827 7.80425 13.9827C11.2108 13.9827 13.9827 11.2108 13.9827 7.8035C13.9827 4.39625 11.2108 1.625 7.80425 1.625ZM7.80425 15.1077C3.77675 15.1077 0.5 11.831 0.5 7.8035C0.5 3.776 3.77675 0.5 7.80425 0.5C11.8317 0.5 15.1077 3.776 15.1077 7.8035C15.1077 11.831 11.8317 15.1077 7.80425 15.1077Z" fill="#0E2D52"/>
</g>
<mask id="mask1_1105_1742" style="mask-type:luminance" maskUnits="userSpaceOnUse" x="11" y="12" width="5" height="5">
<path fill-rule="evenodd" clip-rule="evenodd" d="M11.9302 12.2803H15.6982V16.0413H11.9302V12.2803Z" fill="white"/>
</mask>
<g mask="url(#mask1_1105_1742)">
<path fill-rule="evenodd" clip-rule="evenodd" d="M15.1359 16.0413C14.9926 16.0413 14.8486 15.9866 14.7384 15.8771L12.0954 13.2416C11.8756 13.0218 11.8749 12.6656 12.0946 12.4458C12.3136 12.2246 12.6699 12.2261 12.8904 12.4443L15.5334 15.0806C15.7531 15.3003 15.7539 15.6558 15.5341 15.8756C15.4246 15.9866 15.2799 16.0413 15.1359 16.0413Z" fill="#0E2D52"/>
</g>
</svg>
