<svg width="17" height="16" viewBox="0 0 17 16" fill="none" xmlns="http://www.w3.org/2000/svg">
<path d="M7.16683 10.6667H9.8335C10.2002 10.6667 10.5002 10.3667 10.5002 9.99999V6.66666H11.5602C12.1535 6.66666 12.4535 5.94666 12.0335 5.52666L8.9735 2.46666C8.91182 2.40486 8.83856 2.35583 8.75791 2.32237C8.67726 2.28892 8.59081 2.2717 8.5035 2.2717C8.41618 2.2717 8.32973 2.28892 8.24908 2.32237C8.16843 2.35583 8.09517 2.40486 8.0335 2.46666L4.9735 5.52666C4.5535 5.94666 4.84683 6.66666 5.44016 6.66666H6.50016V9.99999C6.50016 10.3667 6.80016 10.6667 7.16683 10.6667ZM4.50016 12H12.5002C12.8668 12 13.1668 12.3 13.1668 12.6667C13.1668 13.0333 12.8668 13.3333 12.5002 13.3333H4.50016C4.1335 13.3333 3.8335 13.0333 3.8335 12.6667C3.8335 12.3 4.1335 12 4.50016 12Z" fill="#0E2D52"/>
</svg>
