<svg width="14" height="8" viewBox="0 0 14 8" fill="none" xmlns="http://www.w3.org/2000/svg">
<path fill-rule="evenodd" clip-rule="evenodd" d="M7.70734 0.293024C7.51981 0.105553 7.26551 0.000236988 7.00034 0.000236988C6.73518 0.000236988 6.48087 0.105553 6.29334 0.293024L0.636343 5.95002C0.540833 6.04227 0.464651 6.15261 0.412242 6.27462C0.359833 6.39662 0.332246 6.52784 0.331092 6.66062C0.329939 6.7934 0.355241 6.92508 0.405521 7.04798C0.455802 7.17087 0.530055 7.28253 0.623948 7.37642C0.717841 7.47031 0.829492 7.54456 0.952389 7.59485C1.07529 7.64513 1.20696 7.67043 1.33974 7.66927C1.47252 7.66812 1.60374 7.64053 1.72575 7.58812C1.84775 7.53572 1.9581 7.45953 2.05034 7.36402L7.00034 2.41402L11.9503 7.36402C12.1389 7.54618 12.3915 7.64698 12.6537 7.6447C12.9159 7.64242 13.1668 7.53725 13.3522 7.35184C13.5376 7.16643 13.6427 6.91562 13.645 6.65342C13.6473 6.39123 13.5465 6.13863 13.3643 5.95002L7.70734 0.293024Z" fill="black"/>
</svg>
