<svg width="32" height="32" viewBox="0 0 32 32" fill="none" xmlns="http://www.w3.org/2000/svg">
<g clip-path="url(#clip0_270_1503)">
<path d="M5.33333 14.6667C5.67317 14.667 6.00004 14.7972 6.24715 15.0305C6.49427 15.2637 6.64297 15.5826 6.66289 15.9218C6.6828 16.2611 6.57243 16.5952 6.35431 16.8558C6.13619 17.1164 5.82679 17.2839 5.48933 17.324L5.33333 17.3333H3.99999C3.66015 17.3329 3.33328 17.2028 3.08617 16.9695C2.83905 16.7362 2.69035 16.4174 2.67043 16.0781C2.65051 15.7389 2.76089 15.4048 2.97901 15.1442C3.19713 14.8836 3.50653 14.7161 3.84399 14.676L3.99999 14.6667H5.33333ZM16 2.66666C16.3266 2.6667 16.6418 2.7866 16.8858 3.00361C17.1299 3.22062 17.2858 3.51965 17.324 3.84399L17.3333 3.99999V5.33332C17.3329 5.67316 17.2028 6.00003 16.9695 6.24715C16.7362 6.49426 16.4174 6.64297 16.0781 6.66289C15.7389 6.6828 15.4048 6.57242 15.1442 6.3543C14.8836 6.13618 14.7161 5.82678 14.676 5.48932L14.6667 5.33332V3.99999C14.6667 3.64637 14.8071 3.30723 15.0572 3.05718C15.3072 2.80713 15.6464 2.66666 16 2.66666ZM28 14.6667C28.3398 14.667 28.6667 14.7972 28.9138 15.0305C29.1609 15.2637 29.3096 15.5826 29.3296 15.9218C29.3495 16.2611 29.2391 16.5952 29.021 16.8558C28.8029 17.1164 28.4935 17.2839 28.156 17.324L28 17.3333H26.6667C26.3268 17.3329 26 17.2028 25.7528 16.9695C25.5057 16.7362 25.357 16.4174 25.3371 16.0781C25.3172 15.7389 25.4276 15.4048 25.6457 15.1442C25.8638 14.8836 26.1732 14.7161 26.5107 14.676L26.6667 14.6667H28ZM6.52399 6.52399C6.75358 6.29442 7.05905 6.15651 7.38308 6.13614C7.70712 6.11576 8.02745 6.21432 8.28399 6.41332L8.40933 6.52399L9.34266 7.45732C9.58179 7.69727 9.72062 8.01924 9.73096 8.35783C9.7413 8.69643 9.62237 9.02627 9.39833 9.28036C9.17428 9.53445 8.86192 9.69373 8.52469 9.72585C8.18746 9.75798 7.85065 9.66054 7.58266 9.45332L7.45733 9.34266L6.52399 8.40932C6.27403 8.15929 6.13361 7.82021 6.13361 7.46666C6.13361 7.1131 6.27403 6.77403 6.52399 6.52399ZM23.5907 6.52399C23.8306 6.28486 24.1526 6.14602 24.4912 6.13569C24.8298 6.12535 25.1596 6.24428 25.4137 6.46832C25.6678 6.69237 25.8271 7.00472 25.8592 7.34196C25.8913 7.67919 25.7939 8.016 25.5867 8.28399L25.476 8.40932L24.5427 9.34266C24.3027 9.58179 23.9807 9.72062 23.6421 9.73096C23.3035 9.7413 22.9737 9.62237 22.7196 9.39832C22.4655 9.17428 22.3063 8.86192 22.2741 8.52469C22.242 8.18746 22.3394 7.85064 22.5467 7.58266L22.6573 7.45732L23.5907 6.52399ZM18.6667 24C19.0203 24 19.3594 24.1405 19.6095 24.3905C19.8595 24.6406 20 24.9797 20 25.3333C20 26.3942 19.5786 27.4116 18.8284 28.1617C18.0783 28.9119 17.0609 29.3333 16 29.3333C14.9391 29.3333 13.9217 28.9119 13.1716 28.1617C12.4214 27.4116 12 26.3942 12 25.3333C12 25.0067 12.1199 24.6915 12.3369 24.4475C12.554 24.2034 12.853 24.0475 13.1773 24.0093L13.3333 24H18.6667ZM16 7.99999C17.6791 7.99999 19.3156 8.52829 20.6777 9.51005C22.0398 10.4918 23.0585 11.8773 23.5895 13.4702C24.1204 15.0631 24.1367 16.7826 23.6361 18.3853C23.1355 19.988 22.1432 21.3926 20.8 22.4C20.6162 22.538 20.3999 22.6262 20.172 22.656L20 22.6667H12C11.7115 22.6667 11.4308 22.5731 11.2 22.4C9.85674 21.3926 8.86453 19.988 8.36388 18.3853C7.86324 16.7826 7.87956 15.0631 8.41053 13.4702C8.94149 11.8773 9.96019 10.4918 11.3223 9.51005C12.6844 8.52829 14.3209 7.99999 16 7.99999Z" fill="black"/>
</g>
<defs>
<clipPath id="clip0_270_1503">
<rect width="32" height="32" fill="white"/>
</clipPath>
</defs>
</svg>
