<svg width="8" height="7" viewBox="0 0 8 7" fill="none" xmlns="http://www.w3.org/2000/svg">
<path fill-rule="evenodd" clip-rule="evenodd" d="M0.792931 0.292931C0.988193 0.0976689 1.30478 0.0976689 1.50004 0.292931L4.00004 2.79293L6.50004 0.292931C6.6953 0.0976688 7.01188 0.0976688 7.20715 0.292931C7.40241 0.488193 7.40241 0.804776 7.20715 1.00004L4.70714 3.50004L7.20715 6.00004C7.40241 6.1953 7.40241 6.51188 7.20715 6.70714C7.01188 6.90241 6.6953 6.90241 6.50004 6.70714L4.00004 4.20714L1.50004 6.70714C1.30478 6.90241 0.988193 6.90241 0.792931 6.70714C0.597669 6.51188 0.597669 6.1953 0.792931 6.00004L3.29293 3.50004L0.792931 1.00004C0.597669 0.804776 0.597669 0.488193 0.792931 0.292931Z" fill="#A0AEC0"/>
</svg>
