<svg width="20" height="21" viewBox="0 0 20 21" fill="none" xmlns="http://www.w3.org/2000/svg">
<path fill-rule="evenodd" clip-rule="evenodd" d="M3.0893 9.81429C2.7565 9.86011 2.5 10.1496 2.5 10.4999C2.5 10.8821 2.80526 11.1918 3.18182 11.1918H15.1666L10.8372 15.5678L10.7711 15.6453C10.5725 15.9157 10.5937 16.3002 10.8352 16.5463C11.101 16.8171 11.5327 16.818 11.7995 16.5483L17.2897 10.9997C17.3225 10.9679 17.3521 10.9328 17.378 10.895C17.5639 10.6248 17.5377 10.2499 17.2994 10.0092L11.7994 4.45161L11.7228 4.38478C11.4555 4.18438 11.0767 4.20754 10.8352 4.45372C10.5695 4.72452 10.5704 5.16262 10.8373 5.43226L15.1677 9.80797H3.18182L3.0893 9.81429Z" fill="white"/>
</svg>