<svg width="21" height="12" viewBox="0 0 21 12" fill="none" xmlns="http://www.w3.org/2000/svg">
<path d="M13.4872 5.99874C13.4872 7.58989 12.1408 8.87977 10.48 8.87977C8.81919 8.87977 7.47284 7.58989 7.47284 5.99874C7.47284 4.40757 8.81919 3.11771 10.48 3.11771C12.1408 3.11769 13.4872 4.40759 13.4872 5.99874ZM10.4854 0C8.76586 0.0076277 6.98347 0.42625 5.29619 1.22773C4.04342 1.84732 2.82252 2.72149 1.76272 3.80046C1.2422 4.35124 0.578286 5.14876 0.470947 5.99968C0.483632 6.73676 1.27428 7.64654 1.76272 8.1989C2.75654 9.2355 3.94564 10.0853 5.29619 10.7723C6.86965 11.5359 8.61126 11.9755 10.4854 12C12.2066 11.9923 13.9886 11.5688 15.674 10.7723C16.9268 10.1527 18.1483 9.27788 19.2082 8.1989C19.7287 7.64813 20.3926 6.85059 20.4999 5.99968C20.4872 5.26259 19.6966 4.35278 19.2082 3.80043C18.2143 2.76383 17.0246 1.91472 15.674 1.22769C14.1014 0.464655 12.3555 0.0280239 10.4854 0ZM10.4842 1.48962C13.0899 1.48962 15.2022 3.50911 15.2022 6.00033C15.2022 8.49153 13.0899 10.511 10.4842 10.511C7.87841 10.511 5.76609 8.49151 5.76609 6.00033C5.76609 3.50911 7.87841 1.48962 10.4842 1.48962Z" fill="black"/>
</svg>
