<svg width="30" height="24" viewBox="0 0 30 24" fill="none" xmlns="http://www.w3.org/2000/svg">
<g clip-path="url(#clip0_270_1608)">
<path d="M25.5 11.625V11.7797L28.7672 8.5125C29.7938 7.48593 29.7938 5.82656 28.7672 4.8L25.1062 1.14375C24.0797 0.117184 22.4203 0.117184 21.3937 1.14375L19.5141 3.02343C19.3875 3.00937 19.2563 3 19.125 3H13.875C12.1359 3 10.7062 4.3125 10.5187 6H10.5V11.625C10.5 12.6609 11.3391 13.5 12.375 13.5C13.4109 13.5 14.25 12.6609 14.25 11.625V7.5H21.75C23.8219 7.5 25.5 9.17812 25.5 11.25V11.625ZM15.75 9V11.625C15.75 13.4906 14.2406 15 12.375 15C10.5094 15 9 13.4906 9 11.625V6.06562C7.31719 6.35625 5.91563 7.57968 5.4375 9.2625L4.66406 11.9625L1.23281 15.3937C0.20625 16.4203 0.20625 18.0797 1.23281 19.1062L4.89375 22.7672C5.92031 23.7937 7.57969 23.7937 8.60625 22.7672L10.3734 21C10.4156 21 10.4578 21.0047 10.5 21.0047H18C19.2422 21.0047 20.25 19.9969 20.25 18.7547C20.25 18.4922 20.2031 18.2391 20.1234 18.0047H20.25C21.4922 18.0047 22.5 16.9969 22.5 15.7547C22.5 15.1547 22.2656 14.6109 21.8812 14.2078C23.0859 13.9734 23.9953 12.9141 24 11.6391V11.6203C23.9953 10.1766 22.8234 9.00468 21.375 9.00468H15.75V9Z" fill="black"/>
</g>
<defs>
<clipPath id="clip0_270_1608">
<rect width="30" height="24" fill="white"/>
</clipPath>
</defs>
</svg>
