<svg width="34" height="34" viewBox="0 0 34 34" fill="none" xmlns="http://www.w3.org/2000/svg">
  <circle cx="17" cy="17" r="17" fill="#0E2D52"/>
  <path d="M21.9156 10.5771H12.8489C11.5645 10.5771 10.5823 11.5594 10.5823 12.8438V21.9105C10.5823 23.1949 11.5645 24.1771 12.8489 24.1771H21.9156C23.2001 24.1771 24.1823 23.1949 24.1823 21.9105V12.8438C24.1823 11.5594 23.2001 10.5771 21.9156 10.5771ZM17.3823 15.1105C18.6667 15.1105 19.6489 16.0927 19.6489 17.3771C19.6489 18.6616 18.6667 19.6438 17.3823 19.6438C16.0978 19.6438 15.1156 18.6616 15.1156 17.3771C15.1156 16.0927 16.0978 15.1105 17.3823 15.1105ZM20.2534 13.5994C20.2534 13.0705 20.7067 12.6927 21.1601 12.6927C21.6134 12.6927 22.0667 13.146 22.0667 13.5994C22.0667 14.0527 21.6889 14.506 21.1601 14.506C20.6312 14.506 20.2534 14.1283 20.2534 13.5994ZM21.9156 22.666H12.8489C12.3956 22.666 12.0934 22.3638 12.0934 21.9105V17.3771H13.6045C13.6045 19.4927 15.2667 21.1549 17.3823 21.1549C19.4978 21.1549 21.1601 19.4927 21.1601 17.3771H22.6712V21.9105C22.6712 22.3638 22.3689 22.666 21.9156 22.666Z" fill="#F5F5F5"/>
  </svg>
  