<svg width="34" height="34" viewBox="0 0 34 34" fill="none" xmlns="http://www.w3.org/2000/svg">
<circle cx="17" cy="17" r="17" fill="white"/>
<path d="M14.3556 21.1568H12.0889V13.6012H14.3556V21.1568ZM22.6667 21.1568H20.4V17.1206C20.4 16.0688 20.0253 15.5452 19.2826 15.5452C18.694 15.5452 18.3207 15.8384 18.1334 16.4255V21.1568H15.8667C15.8667 21.1568 15.8969 14.3568 15.8667 13.6012H17.6558L17.7941 15.1123H17.841C18.3056 14.3568 19.0483 13.8445 20.0668 13.8445C20.8413 13.8445 21.4676 14.0598 21.9459 14.6008C22.4272 15.1425 22.6667 15.8694 22.6667 16.8901V21.1568Z" fill="#0E2D52"/>
<path d="M13.2603 12.8444C13.9071 12.8444 14.4315 12.337 14.4315 11.7111C14.4315 11.0852 13.9071 10.5778 13.2603 10.5778C12.6136 10.5778 12.0892 11.0852 12.0892 11.7111C12.0892 12.337 12.6136 12.8444 13.2603 12.8444Z" fill="#0E2D52"/>
</svg>
