<svg width="34" height="34" viewBox="0 0 34 34" fill="none" xmlns="http://www.w3.org/2000/svg">
  <circle cx="17" cy="17" r="17" fill="#0E2D52"/>
  <path d="M14.3555 21.1568H12.0889V13.6012H14.3555V21.1568ZM22.6666 21.1568H20.4V17.1206C20.4 16.0688 20.0252 15.5452 19.2825 15.5452C18.6939 15.5452 18.3207 15.8384 18.1333 16.4255V21.1568H15.8666C15.8666 21.1568 15.8969 14.3568 15.8666 13.6012H17.6558L17.7941 15.1123H17.8409C18.3056 14.3568 19.0483 13.8445 20.0668 13.8445C20.8412 13.8445 21.4676 14.0598 21.9458 14.6008C22.4271 15.1425 22.6666 15.8694 22.6666 16.8901V21.1568Z" fill="#F5F5F5"/>
  <path d="M13.2602 12.8444C13.907 12.8444 14.4313 12.337 14.4313 11.7111C14.4313 11.0852 13.907 10.5778 13.2602 10.5778C12.6134 10.5778 12.0891 11.0852 12.0891 11.7111C12.0891 12.337 12.6134 12.8444 13.2602 12.8444Z" fill="#F5F5F5"/>
  </svg>
  