<svg width="17" height="16" viewBox="0 0 17 16" fill="none" xmlns="http://www.w3.org/2000/svg">
<path fill-rule="evenodd" clip-rule="evenodd" d="M8.83279 9.09862C8.33104 9.09862 7.83079 8.93287 7.41229 8.60137L4.04854 5.88937C3.80629 5.69437 3.76879 5.33962 3.96304 5.09812C4.15879 4.85737 4.51279 4.81912 4.75429 5.01337L8.11504 7.72237C8.53729 8.05687 9.13204 8.05687 9.55729 7.71937L12.8843 5.01487C13.1258 4.81762 13.4798 4.85512 13.6763 5.09662C13.872 5.33737 13.8353 5.69137 13.5945 5.88787L10.2615 8.59687C9.84004 8.93137 9.33604 9.09862 8.83279 9.09862Z" fill="#0E2D52"/>
<mask id="mask0_1144_1032" style="mask-type:luminance" maskUnits="userSpaceOnUse" x="0" y="0" width="17" height="16">
<path fill-rule="evenodd" clip-rule="evenodd" d="M0.75 0.5H16.8749V15.125H0.75V0.5Z" fill="white"/>
</mask>
<g mask="url(#mask0_1144_1032)">
<path fill-rule="evenodd" clip-rule="evenodd" d="M5.12925 14H12.4943C12.4958 13.9985 12.5017 14 12.5063 14C13.362 14 14.121 13.694 14.703 13.1128C15.3787 12.44 15.75 11.4732 15.75 10.391V5.24C15.75 3.14525 14.3805 1.625 12.4943 1.625H5.13075C3.2445 1.625 1.875 3.14525 1.875 5.24V10.391C1.875 11.4732 2.247 12.44 2.922 13.1128C3.504 13.694 4.26375 14 5.11875 14H5.12925ZM5.1165 15.125C3.95925 15.125 2.92575 14.705 2.12775 13.91C1.239 13.0235 0.75 11.774 0.75 10.391V5.24C0.75 2.53775 2.63325 0.5 5.13075 0.5H12.4943C14.9918 0.5 16.875 2.53775 16.875 5.24V10.391C16.875 11.774 16.386 13.0235 15.4972 13.91C14.7 14.7042 13.6658 15.125 12.5063 15.125H12.4943H5.13075H5.1165Z" fill="#0E2D52"/>
</g>
</svg>
