<svg width="25" height="21" viewBox="0 0 25 21" fill="none" xmlns="http://www.w3.org/2000/svg">
<path fill-rule="evenodd" clip-rule="evenodd" d="M0.499901 2C0.499901 1.17157 1.17147 0.5 1.9999 0.5H23.1764C24.0048 0.5 24.6764 1.17157 24.6764 2C24.6764 2.82843 24.0048 3.5 23.1764 3.5H1.9999C1.17147 3.5 0.499901 2.82843 0.499901 2ZM0.499901 10.4706C0.499901 9.64216 1.17147 8.97059 1.9999 8.97059H23.1764C24.0048 8.97059 24.6764 9.64216 24.6764 10.4706C24.6764 11.299 24.0048 11.9706 23.1764 11.9706H1.9999C1.17147 11.9706 0.499901 11.299 0.499901 10.4706ZM1.9999 17.4412C1.17147 17.4412 0.499901 18.1128 0.499901 18.9412C0.499901 19.7696 1.17147 20.4412 1.9999 20.4412H23.1764C24.0048 20.4412 24.6764 19.7696 24.6764 18.9412C24.6764 18.1128 24.0048 17.4412 23.1764 17.4412H1.9999Z" fill="#0E2D52"/>
</svg>
