<svg width="13" height="13" viewBox="0 0 13 13" fill="none" xmlns="http://www.w3.org/2000/svg">
<path d="M12.75 6.5C12.75 5.67924 12.5883 4.86651 12.2742 4.10823C11.9602 3.34994 11.4998 2.66095 10.9194 2.08058C10.3391 1.50022 9.65006 1.03984 8.89177 0.725753C8.13349 0.411661 7.32076 0.25 6.5 0.25C4.8424 0.25 3.25269 0.90848 2.08058 2.08058C0.90848 3.25269 0.25 4.8424 0.25 6.5C0.25 8.1576 0.90848 9.74732 2.08058 10.9194C3.25269 12.0915 4.8424 12.75 6.5 12.75C8.1576 12.75 9.74732 12.0915 10.9194 10.9194C12.0915 9.74732 12.75 8.1576 12.75 6.5ZM11.4563 5.875H9.625C9.52192 4.40509 9.01829 2.99147 8.16875 1.7875C9.04154 2.09748 9.81108 2.64379 10.3916 3.36553C10.972 4.08726 11.3406 4.95604 11.4563 5.875ZM4.675 7.125H8.375C8.21505 8.66912 7.55691 10.1192 6.5 11.2563C5.44379 10.124 4.80075 8.66831 4.675 7.125ZM4.675 5.875C4.82055 4.33864 5.46099 2.89107 6.5 1.75C7.56544 2.87883 8.22508 4.33003 8.375 5.875H4.675ZM4.9 1.76875C4.04597 2.97939 3.53425 4.39795 3.41875 5.875H1.54375C1.66182 4.94469 2.03913 4.06633 2.6326 3.34023C3.22608 2.61414 4.01179 2.06958 4.9 1.76875ZM1.54375 7.125H3.41875C3.52168 8.60079 4.02992 10.0195 4.8875 11.225C4.00248 10.9227 3.21999 10.3782 2.62892 9.65349C2.03784 8.92873 1.66188 8.05273 1.54375 7.125ZM8.1375 11.2188C8.99275 10.0129 9.50666 8.59859 9.625 7.125H11.4688C11.3506 8.05015 10.976 8.9238 10.3873 9.64722C9.7986 10.3706 9.01932 10.915 8.1375 11.2188Z" fill="#0E2D52"/>
</svg>
